<?xml version="1.0" encoding="UTF-8"?>
<svg width="1175px" height="1782px" viewBox="0 0 1175 1782" version="1.1" xmlns="http://www.w3.org/2000/svg" xmlns:xlink="http://www.w3.org/1999/xlink">
    <!-- Generator: Sketch 57.1 (83088) - https://sketch.com -->
    <title>Group</title>
    <desc>Created with Sketch.</desc>
    <g id="Symbols" stroke="none" stroke-width="1" fill="none" fill-rule="evenodd">
        <g id="background-2" transform="translate(105.000000, -50.000000)">
            <g id="Group" transform="translate(-145.000000, -41.000000)">
                <path d="M214.940537,183.601583 L237,206.016007 L237,207.312 L254.763278,225.363044 C261.965287,232.679219 264.703048,243.27222 261.945031,253.146184 L245.116451,313.400964 C242.356875,323.274927 234.523795,330.934314 224.563769,333.492103 L163.792339,349.09197 C153.832313,351.649758 143.261472,348.716145 136.059463,341.398417 L114,318.983993 L114,317.689 L96.2367217,299.636956 C89.0347128,292.320781 86.2969522,281.72778 89.0549694,271.853816 L105.883549,211.599036 C108.643125,201.725073 116.476205,194.065686 126.436231,191.507897 L187.207661,175.90803 C197.167687,173.350242 207.738528,176.283855 214.940537,183.601583 Z" id="Combined-Shape" fill="#DDDDDD" opacity="0.6015625"></path>
                <path d="M1022.94054,1186.60158 L1045,1209.01601 L1045,1210.312 L1062.76328,1228.36304 C1069.96529,1235.67922 1072.70305,1246.27222 1069.94503,1256.14618 L1053.11645,1316.40096 C1050.35688,1326.27493 1042.52379,1333.93431 1032.56377,1336.4921 L971.792339,1352.09197 C961.832313,1354.64976 951.261472,1351.71614 944.059463,1344.39842 L922,1321.98399 L922,1320.689 L904.236722,1302.63696 C897.034713,1295.32078 894.296952,1284.72778 897.054969,1274.85382 L913.883549,1214.59904 C916.643125,1204.72507 924.476205,1197.06569 934.436231,1194.5079 L995.207661,1178.90803 C1005.16769,1176.35024 1015.73853,1179.28386 1022.94054,1186.60158 Z" id="Combined-Shape" fill="#DDDDDD" opacity="0.6015625" transform="translate(983.500000, 1265.500000) rotate(32.000000) translate(-983.500000, -1265.500000) "></path>
                <path d="M780.940537,8.60158322 L803,31.0160074 L803,32.312 L820.763278,50.3630443 C827.965287,57.6792192 830.703048,68.2722205 827.945031,78.1461836 L811.116451,138.400964 C808.356875,148.274927 800.523795,155.934314 790.563769,158.492103 L729.792339,174.09197 C719.832313,176.649758 709.261472,173.716145 702.059463,166.398417 L680,143.983993 L680,142.689 L662.236722,124.636956 C655.034713,117.320781 652.296952,106.72778 655.054969,96.8538164 L671.883549,36.5990362 C674.643125,26.7250731 682.476205,19.0656856 692.436231,16.5078975 L753.207661,0.908029741 C763.167687,-1.64975842 773.738528,1.28385533 780.940537,8.60158322 Z" id="Combined-Shape" fill="#FFFFFF" opacity="0"></path>
                <path d="M283.608086,567.131818 L307,590.927953 L307,591.825 L326.702741,614.944965 C333.776965,623.24302 335.888407,634.68718 332.241864,644.960598 L309.991265,707.653148 C306.343074,717.92645 297.494011,725.473306 286.773244,727.448668 L221.360615,739.494442 C210.639849,741.469804 199.679343,737.5725 192.605234,729.272797 L170.937561,703.850589 L170.943,703.76 L157.734242,690.320056 C150.097212,682.552884 147.194084,671.306889 150.118692,660.824257 L167.963764,596.855141 C170.890025,586.372509 179.196244,578.240968 189.757883,575.525508 L254.20007,558.964004 C264.761708,556.248544 275.971056,559.362997 283.608086,567.131818 Z" id="Combined-Shape" fill="#396CAA" opacity="0.5" transform="translate(241.500000, 649.000000) rotate(76.000000) translate(-241.500000, -649.000000) "></path>
                <path d="M1045.91868,1657.61358 L1075.62058,1687.87682 L1075.62,1688.835 L1100.73051,1718.2763 C1109.71669,1728.80845 1112.39879,1743.33373 1107.76669,1756.37307 L1079.50242,1835.94438 C1074.86823,1848.98357 1063.62753,1858.56227 1050.00926,1861.06946 L966.917539,1876.35833 C953.299267,1878.86552 939.376463,1873.91894 930.390433,1863.3847 L904.55,1833.093 L886.090308,1814.28083 C876.393186,1804.40276 872.706937,1790.10043 876.42046,1776.76892 L899.079248,1695.41485 C902.79487,1682.08334 913.341696,1671.74188 926.752342,1668.28843 L1008.57784,1647.22599 C1021.98849,1643.77255 1036.22156,1647.73342 1045.91868,1657.61358 Z" id="Combined-Shape" fill="#396CAA" opacity="0.5" transform="translate(992.500000, 1761.500000) rotate(7.000000) translate(-992.500000, -1761.500000) "></path>
                <path d="M1144.61073,761.722522 L1172,789.66379 L1172,790.2 L1195.44051,817.644382 C1203.73839,827.355842 1206.21505,840.749283 1201.93775,852.772568 L1175.8384,926.14352 C1171.55917,938.16667 1161.17946,946.998979 1148.60429,949.310804 L1071.87705,963.408331 C1059.30188,965.720156 1046.4455,961.159025 1038.14776,951.445636 L1016.037,925.562 L997.226802,906.369356 C988.284711,897.249192 984.885478,884.044218 988.309861,871.735579 L1009.20441,796.623456 C1012.63073,784.314817 1022.35636,774.766814 1034.72284,771.578338 L1110.1773,752.131927 C1122.54377,748.943452 1135.66864,752.600422 1144.61073,761.722522 Z" id="Combined-Shape" fill="#D3ECFF" opacity="0.5"></path>
                <path d="M199.462345,1543.48977 L226.851612,1571.43104 L226.851612,1571.96725 L250.292124,1599.41163 C258.589998,1609.12309 261.066662,1622.51653 256.789366,1634.53982 L230.690014,1707.91077 C226.410786,1719.93392 216.031073,1728.76623 203.455904,1731.07805 L126.728658,1745.17558 C114.153488,1747.4874 101.297112,1742.92627 92.9993732,1733.21288 L70.8886118,1707.32925 L52.0784139,1688.1366 C43.1363224,1679.01644 39.7370894,1665.81147 43.1614732,1653.50283 L64.0560185,1578.3907 C67.482337,1566.08206 77.207974,1556.53406 89.5744493,1553.34559 L165.028909,1533.89917 C177.395384,1530.7107 190.520254,1534.36767 199.462345,1543.48977 Z" id="Combined-Shape" fill="#D3ECFF" opacity="0.5" transform="translate(150.351612, 1639.267247) rotate(53.000000) translate(-150.351612, -1639.267247) "></path>
                <path d="M346.770295,1067.38083 L376.47219,1097.64407 L376.471612,1098.60225 L401.582121,1128.04355 C410.568297,1138.5757 413.250399,1153.10098 408.618304,1166.14031 L380.354029,1245.71163 C375.719842,1258.75082 364.479139,1268.32952 350.860868,1270.83671 L267.76915,1286.12558 C254.150879,1288.63277 240.228075,1283.68619 231.242045,1273.15195 L205.401612,1242.86025 L186.94192,1224.04808 C177.244798,1214.17001 173.558549,1199.86768 177.272072,1186.53617 L199.93086,1105.18209 C203.646482,1091.85059 214.193308,1081.50913 227.603954,1078.05568 L309.429452,1056.99324 C322.840098,1053.5398 337.073173,1057.50067 346.770295,1067.38083 Z" id="Combined-Shape" fill="#95EFDB" opacity="0.5"></path>
                <path d="M1150.24193,245.606246 L1180,275.850366 L1180,277.281 L1204.73051,306.276301 C1213.71669,316.808449 1216.39879,331.333729 1211.76669,344.373067 L1183.50242,423.944381 C1178.86823,436.983572 1167.62753,446.562274 1154.00926,449.069464 L1070.91754,464.358331 C1057.29927,466.865521 1043.37646,461.918943 1034.39043,451.384703 L1007.428,419.777 L990.111282,402.174522 C980.395821,392.302697 976.7026,378.009401 980.423147,364.686314 L1003.12479,283.383631 C1006.84744,270.060544 1017.41421,259.725617 1030.85022,256.274355 L1112.83047,235.225218 C1126.26648,231.773956 1140.52647,235.732325 1150.24193,245.606246 Z" id="Combined-Shape" fill="#00D7A7" opacity="0.5" transform="translate(1096.500000, 349.500000) rotate(-47.000000) translate(-1096.500000, -349.500000) "></path>
            </g>
        </g>
    </g>
</svg>