<?xml version="1.0" encoding="UTF-8"?>
<svg width="1538px" height="2704px" viewBox="0 0 1538 2704" version="1.1" xmlns="http://www.w3.org/2000/svg" xmlns:xlink="http://www.w3.org/1999/xlink">
    <!-- Generator: Sketch 57.1 (83088) - https://sketch.com -->
    <title>Group</title>
    <desc>Created with Sketch.</desc>
    <g id="others" stroke="none" stroke-width="1" fill="none" fill-rule="evenodd">
        <g id="Group" transform="translate(-37.000000, 0.000000)">
            <path d="M184.940537,261.601583 L207,284.016007 L207,285.312 L224.763278,303.363044 C231.965287,310.679219 234.703048,321.27222 231.945031,331.146184 L215.116451,391.400964 C212.356875,401.274927 204.523795,408.934314 194.563769,411.492103 L133.792339,427.09197 C123.832313,429.649758 113.261472,426.716145 106.059463,419.398417 L84,396.983993 L84,395.689 L66.2367217,377.636956 C59.0347128,370.320781 56.2969522,359.72778 59.0549694,349.853816 L75.8835492,289.599036 C78.6431246,279.725073 86.4762052,272.065686 96.4362312,269.507897 L157.207661,253.90803 C167.167687,251.350242 177.738528,254.283855 184.940537,261.601583 Z" id="Combined-Shape" fill="#DDDDDD" opacity="0.6015625"></path>
            <path d="M777.940537,8.60158322 L800,31.0160074 L800,32.312 L817.763278,50.3630443 C824.965287,57.6792192 827.703048,68.2722205 824.945031,78.1461836 L808.116451,138.400964 C805.356875,148.274927 797.523795,155.934314 787.563769,158.492103 L726.792339,174.09197 C716.832313,176.649758 706.261472,173.716145 699.059463,166.398417 L677,143.983993 L677,142.689 L659.236722,124.636956 C652.034713,117.320781 649.296952,106.72778 652.054969,96.8538164 L668.883549,36.5990362 C671.643125,26.7250731 679.476205,19.0656856 689.436231,16.5078975 L750.207661,0.908029741 C760.167687,-1.64975842 770.738528,1.28385533 777.940537,8.60158322 Z" id="Combined-Shape" fill="#FFFFFF" opacity="0"></path>
            <path d="M172.608086,860.131818 L196,883.927953 L196,884.825 L215.702741,907.944965 C222.776965,916.24302 224.888407,927.68718 221.241864,937.960598 L198.991265,1000.65315 C195.343074,1010.92645 186.494011,1018.47331 175.773244,1020.44867 L110.360615,1032.49444 C99.6398487,1034.4698 88.6793435,1030.5725 81.6052343,1022.2728 L59.9375609,996.850589 L59.943,996.76 L46.7342418,983.320056 C39.0972122,975.552884 36.1940835,964.306889 39.1186924,953.824257 L56.9637635,889.855141 C59.8900247,879.372509 68.1962444,871.240968 78.7578828,868.525508 L143.20007,851.964004 C153.761708,849.248544 164.971056,852.362997 172.608086,860.131818 Z" id="Combined-Shape" fill="#396CAA" opacity="0.5" transform="translate(130.500000, 942.000000) rotate(48.000000) translate(-130.500000, -942.000000) "></path>
            <path d="M1510.91868,2043.61358 L1540.62058,2073.87682 L1540.62,2074.835 L1565.73051,2104.2763 C1574.71669,2114.80845 1577.39879,2129.33373 1572.76669,2142.37307 L1544.50242,2221.94438 C1539.86823,2234.98357 1528.62753,2244.56227 1515.00926,2247.06946 L1431.91754,2262.35833 C1418.29927,2264.86552 1404.37646,2259.91894 1395.39043,2249.3847 L1369.55,2219.093 L1351.09031,2200.28083 C1341.39319,2190.40276 1337.70694,2176.10043 1341.42046,2162.76892 L1364.07925,2081.41485 C1367.79487,2068.08334 1378.3417,2057.74188 1391.75234,2054.28843 L1473.57784,2033.22599 C1486.98849,2029.77255 1501.22156,2033.73342 1510.91868,2043.61358 Z" id="Combined-Shape" fill="#396CAA" opacity="0.5"></path>
            <path d="M1497.61073,904.722522 L1525,932.66379 L1525,933.2 L1548.44051,960.644382 C1556.73839,970.355842 1559.21505,983.749283 1554.93775,995.772568 L1528.8384,1069.14352 C1524.55917,1081.16667 1514.17946,1089.99898 1501.60429,1092.3108 L1424.87705,1106.40833 C1412.30188,1108.72016 1399.4455,1104.15902 1391.14776,1094.44564 L1369.037,1068.562 L1350.2268,1049.36936 C1341.28471,1040.24919 1337.88548,1027.04422 1341.30986,1014.73558 L1362.20441,939.623456 C1365.63073,927.314817 1375.35636,917.766814 1387.72284,914.578338 L1463.1773,895.131927 C1475.54377,891.943452 1488.66864,895.600422 1497.61073,904.722522 Z" id="Combined-Shape" fill="#D3ECFF" opacity="0.5"></path>
            <path d="M252.918684,1585.61358 L282.620578,1615.87682 L282.62,1616.835 L307.730509,1646.2763 C316.716685,1656.80845 319.398787,1671.33373 314.766692,1684.37307 L286.502417,1763.94438 C281.86823,1776.98357 270.627528,1786.56227 257.009256,1789.06946 L173.917539,1804.35833 C160.299267,1806.86552 146.376463,1801.91894 137.390433,1791.3847 L111.55,1761.093 L93.0903078,1742.28083 C83.3931858,1732.40276 79.7069367,1718.10043 83.4204603,1704.76892 L106.079248,1623.41485 C109.79487,1610.08334 120.341696,1599.74188 133.752342,1596.28843 L215.57784,1575.22599 C228.988486,1571.77255 243.221562,1575.73342 252.918684,1585.61358 Z" id="Combined-Shape" fill="#95EFDB" opacity="0.5"></path>
            <path d="M243.571735,2523.54422 L268,2548.41502 L268,2549.508 L288.387184,2573.44804 C295.76732,2582.11085 297.970068,2594.05805 294.165837,2604.78304 L270.953049,2670.23131 C267.147099,2680.95618 257.915374,2688.83477 246.731006,2690.89696 L178.489723,2703.47222 C167.305356,2705.53441 155.870883,2701.4658 148.490866,2692.80127 L126.213,2666.644 L112.121202,2652.2958 C104.145823,2644.17785 101.114075,2632.42397 104.168255,2621.46793 L122.80393,2554.60989 C125.859836,2543.65385 134.534053,2535.15508 145.563612,2532.31698 L212.860832,2515.00754 C223.890391,2512.16945 235.596356,2515.42455 243.571735,2523.54422 Z" id="Combined-Shape" fill="#D3ECFF" opacity="0.5"></path>
            <path d="M1503.24193,378.606246 L1533,408.850366 L1533,410.281 L1557.73051,439.276301 C1566.71669,449.808449 1569.39879,464.333729 1564.76669,477.373067 L1536.50242,556.944381 C1531.86823,569.983572 1520.62753,579.562274 1507.00926,582.069464 L1423.91754,597.358331 C1410.29927,599.865521 1396.37646,594.918943 1387.39043,584.384703 L1360.428,552.777 L1343.11128,535.174522 C1333.39582,525.302697 1329.7026,511.009401 1333.42315,497.686314 L1356.12479,416.383631 C1359.84744,403.060544 1370.41421,392.725617 1383.85022,389.274355 L1465.83047,368.225218 C1479.26648,364.773956 1493.52647,368.732325 1503.24193,378.606246 Z" id="Combined-Shape" fill="#00D7A7" opacity="0.5"></path>
        </g>
    </g>
</svg>