<?xml version="1.0" encoding="UTF-8"?>
<svg width="600px" height="480px" viewBox="0 0 600 480" version="1.1" xmlns="http://www.w3.org/2000/svg" xmlns:xlink="http://www.w3.org/1999/xlink">
    <!-- Generator: Sketch 57.1 (83088) - https://sketch.com -->
    <title>acceuil/droit</title>
    <desc>Created with Sketch.</desc>
    <g id="page1---home" stroke="none" stroke-width="1" fill="none" fill-rule="evenodd">
        <g id="landing_page" transform="translate(-801.000000, -137.000000)">
            <g id="header_website" transform="translate(0.000000, 1.000000)">
                <g id="acceuil/droit" transform="translate(801.000000, 136.000000)">
                    <polygon id="Fill-4" fill="#5793CE" points="514.973306 433 514 429.56 525.026694 427 526 430.44"></polygon>
                    <polygon id="Fill-6" fill="#5793CE" points="506.973306 439 506 435.56 517.026694 433 518 436.44"></polygon>
                    <polygon id="Fill-8" fill="#5793CE" points="501.973306 442 501 438.56 512.026694 436 513 439.44"></polygon>
                    <polygon id="Fill-10" fill="#5793CE" points="496.975359 448 496 444.56 507.028747 442 508 445.44"></polygon>
                    <path d="M136.143019,216.527574 C129.208399,220.391772 117.921046,220.467275 110.931405,216.696003 C103.939726,212.922795 103.894895,206.731559 110.827477,202.865425 C117.76006,199.001226 129.051488,198.927659 136.039091,202.698931 C143.03077,206.472139 143.075602,212.663375 136.143019,216.527574 L136.143019,216.527574 Z M280.657409,107 L177.960634,164.242798 C151.92575,156.651855 118.752467,158.998252 96.8604226,171.200679 C70.2264268,186.045706 70.4037151,209.829113 97.2537172,224.317922 C103.281518,227.57229 110.14074,230.079372 117.456428,231.844978 C122.624279,233.09368 128.020364,233.970675 133.510186,234.475963 C154.868328,236.45259 177.665154,232.83426 194.095904,223.67518 C213.999059,212.580128 218.924412,196.498015 208.941249,183.029463 L223.112083,175.1307 L222.7086,166.583387 L237.62323,166.484653 L237.246238,158.481348 L252.160868,158.382613 L251.783875,150.377372 L266.696468,150.278637 L266.321513,142.275332 L281.234105,142.176598 L280.859151,134.171357 L296.780452,134.064878 L301.638558,131.35839 L307,110.343422 L280.657409,107 Z" id="Fill-12" fill="#C4D9E8"></path>
                    <path d="M336.463134,470.539733 L197.324089,394.749728 C187.956303,389.625689 189.131371,380.675107 199.948543,374.757831 L334.989182,300.893704 C345.806354,294.978368 362.171318,294.334469 371.539103,299.460447 L510.676102,375.250452 C520.043887,380.374491 518.868819,389.323134 508.0496,395.24041 L373.011008,469.104537 C362.19179,475.021813 345.828872,475.665711 336.463134,470.539733" id="Fill-14" fill="#717B8F"></path>
                    <path d="M539,302.93823 C539,290.608501 531.188884,276.286623 521.551289,270.946096 L361.005148,182.000112 C356.687456,179.609534 352.746105,179.440741 349.700609,181.073714 L349.690382,181.067826 L158,287.958845 L343.372357,422 L532.223821,316.816536 C532.808786,316.561384 533.371252,316.266978 533.892811,315.890138 L533.896901,315.888175 L533.894856,315.888175 C537.048755,313.595732 539,309.099169 539,302.93823" id="Fill-18" fill="#5D77A9"></path>
                    <path d="M341.577222,422 L532.161641,317.490672 C532.749909,317.237156 533.321665,316.944636 533.843882,316.568262 L533.84801,316.568262 L533.845946,316.568262 C537.028786,314.290512 539,309.822768 539,303.701315 C539,297.85288 537.189786,291.561766 534.254637,286 L317,404.503449 L341.577222,422 Z" id="Fill-20" fill="#1D3461"></path>
                    <path d="M329.590707,420.998897 L169.407252,332.450173 C159.791429,327.133498 152,312.875586 152,300.600925 C152,288.328218 159.791429,282.685235 169.407252,287.999956 L329.590707,376.550634 C339.20653,381.865355 347,396.125221 347,408.399882 C347,420.672589 339.20653,426.315572 329.590707,420.998897" id="Fill-22" fill="#294A8A"></path>
                    <path d="M306.689516,388.627078 L288.312432,378.668603 C286.483876,377.677145 285,375.017406 285,372.725347 C285,370.435117 286.483876,369.381465 288.312432,370.372922 L306.689516,380.331397 C308.518071,381.324684 310,383.984424 310,386.274653 C310,388.564883 308.518071,389.618535 306.689516,388.627078" id="Fill-24" fill="#FFFFFF"></path>
                    <polygon id="Fill-26" fill="#396CAA" points="164 81.9954987 197.021397 100 230.712312 81.0246196 230.624271 72.7701817 230.33558 72.9313398 230.31101 72.3476331 245.294305 72.249366 245.204217 64.1207101 259.89882 64.0224429 259.81078 55.8957523 274.505383 55.7955199 274.417342 47.6688292 289.109898 47.5705621 289.023905 39.4438715 304.732 39.337743 309.613139 36.5882291 315 15.2544379 314.909912 7 312.311688 14.910503 288.530468 11.8602916"></polygon>
                    <polygon id="Fill-28" fill="#D4ECFF" points="197.019797 90 230.713216 71.0542746 230.309862 62.392811 245.29336 62.2907729 244.916623 54.1807073 259.900121 54.0786692 259.521336 45.9666414 274.506881 45.8665656 274.126049 37.7545378 289.111595 37.6524997 288.73281 29.5404718 304.731861 29.4325469 309.613066 26.68733 315 5.38687954 288.530109 2 164 72.0236364"></polygon>
                    <path d="M217,79.2475984 C213.637253,74.580973 208.58298,70.2197707 201.820934,66.4694143 C197.059073,63.8257205 191.75503,61.6857763 186.136238,60 L162,73.8312984 L194.7482,92 L217,79.2475984 Z" id="Fill-30" fill="#396CAA"></path>
                    <polygon id="Fill-32" fill="#5793CE" points="312.102487 12.1321594 313 8.56738931 308.585701 8 204 66.9928366 209.507188 70"></polygon>
                    <polygon id="Fill-34" fill="#D3D0CF" points="79.277865 108 79 96 82 104.104523"></polygon>
                    <path d="M140.48991,110.18245 C147.534976,113.899149 147.58015,119.995756 140.594631,123.80399 C133.607058,127.610317 122.231463,127.684689 115.190503,123.96799 C108.145436,120.253198 108.100262,114.154684 115.085782,110.34645 C122.073354,106.540123 133.446896,106.465751 140.48991,110.18245 M101.408373,131.477668 C128.465453,145.751394 172.152669,145.467254 198.99004,130.844551 C212.445686,123.512223 219.106775,113.9678 218.997947,104.474866 L219,104.480587 L218.626289,92.4189546 L216.420984,94.6996996 C213.306042,88.7537438 207.373895,83.1548579 198.593742,78.5209026 C171.538715,64.2490831 127.849446,64.5332227 101.012075,79.1540192 C74.1747043,93.7786295 74.3533463,117.203941 101.408373,131.477668" id="Fill-36" fill="#1D3461"></path>
                    <path d="M140.489364,99.1823522 C147.534245,102.899063 147.579417,108.995688 140.592029,112.803934 C133.604641,116.610273 122.2314,116.684645 115.188573,112.967935 C108.145746,109.253131 108.100573,103.154599 115.085907,99.3463528 C122.071242,95.540014 133.444484,95.4656417 140.489364,99.1823522 M101.40886,120.477635 C128.463172,134.751406 172.151287,134.467265 198.985895,119.844517 C225.82461,105.221768 225.648026,81.7944781 198.591661,67.5207077 C171.537349,53.2488444 127.849235,53.5329849 101.01052,68.1557332 C74.1759113,82.7784815 74.3524953,106.205772 101.40886,120.477635" id="Fill-38" fill="#F2F2F2"></path>
                    <path d="M131,129.571585 C125.09408,130.457112 118.560694,129.683009 113.911742,127.149582 C108.900165,124.416764 107.480218,120.432872 109.621343,116.955274 L97.4611365,107.703182 C97.4611365,107.703182 91.1049892,100.820314 84.8119958,94 C75.0210842,107.734459 80.1752678,123.91047 100.237877,134.847603 C109.089627,139.672062 119.008884,142.410744 130.258449,144 L131,129.571585 Z" id="Fill-40" fill="#5793CE"></path>
                    <path d="M140.489364,99.1818784 C147.534245,102.898547 147.579417,108.995105 140.592029,112.803307 C133.604641,116.609603 122.2314,116.683975 115.188573,112.967306 C108.145746,109.252544 108.100573,103.15408 115.085907,99.3458772 C122.071242,95.5395812 133.444484,95.4652096 140.489364,99.1818784 M101.40886,120.476922 C107.482529,123.682525 114.393945,126.152041 121.7653,127.89119 C126.972475,129.121181 132.407566,129.985034 137.941216,130.484658 C159.461878,132.42976 182.432172,128.865648 198.985895,119.843811 C225.82461,105.221227 225.648026,81.7941996 198.591661,67.5205896 C171.537349,53.2488865 127.849235,53.5330238 101.01052,68.1556079 C74.1759113,82.7781919 74.3524953,106.205219 101.40886,120.476922" id="Fill-42" fill="#D4ECFF"></path>
                    <path d="M88.0023878,97.4813091 C89.344737,89.7513943 95.2724006,82.1973432 105.825105,76.2119149 C130.137935,62.4197578 169.72051,62.1529302 194.231973,75.6135742 C206.413479,82.3044785 212.566958,91.1239394 212.707048,100 C214.452938,89.9232152 208.395639,79.5411957 194.522607,71.9224591 C170.013234,58.4618151 130.430659,58.7306641 106.117829,72.5207998 C93.8861428,79.4583174 87.8622984,88.4981132 88.0023878,97.4813091" id="Fill-44" fill="#396CAA"></path>
                    <path d="M106.236366,102.202132 C101.363576,102.202132 95.9032567,103.793331 90.2066935,106.938995 C69.9431167,118.127661 53.5909197,145.220588 53.759372,167.333041 C53.8333266,177.636203 57.4755936,185.230652 64.0144182,188.724331 C70.5511884,192.216076 79.3476843,191.274504 88.7892292,186.063954 C109.05486,174.875288 125.405003,147.782361 125.240659,125.671841 C125.195465,119.604789 123.878661,114.320769 121.427886,110.390139 C119.774177,107.735562 117.602786,105.680343 114.981505,104.274751 C112.388983,102.888493 109.441068,102.202132 106.236366,102.202132 M72.741068,200 C67.8785491,200 63.3077403,198.909555 59.1970938,196.711263 C49.4967076,191.529714 44.0980174,181.118281 44.0014655,167.39491 C43.8104159,142.361069 62.3237325,111.68746 85.2681657,99.0177991 C97.8384036,92.0749103 110.102551,91.1043366 119.802938,96.2897523 C123.934127,98.5015777 127.313444,101.68011 129.844337,105.742212 C133.209274,111.13837 134.9431,117.822181 134.998566,125.608039 C135.187561,150.64188 116.67219,181.317423 93.7277571,193.987083 C86.4863633,197.983449 79.34563,200 72.741068,200" id="Fill-46" fill="#1D3461"></path>
                    <path d="M118.323769,122.0385 L137.278348,126 L140,114 C133.124141,117.442609 121.932434,117.509841 115,114.149978 L118.323769,122.0385 Z" id="Fill-48" fill="#D4ECFF"></path>
                    <path d="M102,121.128865 C107.975506,124.134321 114.77522,126.452816 122.02744,128.084349 C127.150457,129.236441 132.499726,130.04684 137.941922,130.517337 C159.114768,132.34029 181.713817,128.99672 198,120.53314 L120.82749,119 L102,121.128865 Z" id="Fill-50" fill="#D4ECFF"></path>
                    <path d="M130.128941,131.965011 C130.128941,131.965011 121.745112,130.741586 113,128 L113,138.866245 C117.168173,140.171232 124.036678,142.061981 129.918365,142.760816 C147.978384,144.901811 130.128941,131.965011 130.128941,131.965011" id="Fill-52" fill="#396CAA"></path>
                    <path d="M118,128.35311 C114.446586,127.420443 110.575684,126.230613 107.001918,124.741968 C96.6021772,120.410048 109.757544,136.460973 109.757544,136.460973 C109.757544,136.460973 113.300783,137.715998 118,139 L118,128.35311 Z" id="Fill-54" fill="#5793CE"></path>
                    <polygon id="Fill-56" fill="#5793CE" points="315 327.259036 280.698334 346 264 343.70345 304.786456 327"></polygon>
                    <path d="M273.104362,434.514837 C273.104362,434.514837 263.180607,429.905613 257.084939,436.767266 C250.989272,443.62892 242.27558,459.822877 242.005532,470.766228 C241.735484,481.709579 251.415989,480.97142 257.167397,478.381221 C262.920866,475.791023 279.725696,453.352126 280.741984,448.953532 C281.760334,444.556837 279.54429,438.611715 277.926062,437.448498 C276.309896,436.285281 273.104362,434.514837 273.104362,434.514837" id="Fill-58" fill="#173D7A"></path>
                    <path d="M275.564546,432.205461 L275.994253,441.755407 C276.086745,443.78678 275.057762,445.722425 273.277273,446.723753 C271.658647,447.637009 269.303931,448.337747 266.12256,447.828468 C259.133564,446.712265 258.507309,444.728756 258.01016,435.180724 C257.511084,425.632693 275.564546,432.205461 275.564546,432.205461" id="Fill-60" fill="#5793CE"></path>
                    <path d="M236.103441,416.514004 C236.103441,416.514004 226.17998,411.906784 220.084493,418.76638 C213.989006,425.627873 205.275572,441.823349 205.005532,452.766444 C204.735491,463.709539 214.41571,462.971397 220.166948,460.381259 C225.920246,457.791122 242.724579,435.352749 243.742898,430.954259 C244.759156,426.557666 242.543178,420.612683 240.924998,419.449493 C239.30888,418.286303 236.103441,416.514004 236.103441,416.514004" id="Fill-62" fill="#173D7A"></path>
                    <path d="M238.564546,413.204188 L238.994253,422.753746 C239.086745,424.785037 238.057762,426.720603 236.277273,427.723805 C234.658647,428.637024 232.303931,429.337733 229.12256,428.828475 C222.133564,427.712317 221.507309,425.728889 221.01016,416.181246 C220.511084,406.633602 238.564546,413.204188 238.564546,413.204188" id="Fill-64" fill="#5793CE"></path>
                    <path d="M328.786843,236.404043 C325.806557,191.435895 276.273155,243.019231 276.273155,243.019231 L242.369002,273.833865 L211.838323,304.933586 C205.875659,311.007689 203.102424,319.207341 204.256893,327.350752 L216.604689,414.550599 C217.215386,418.857937 221.191193,422.034624 225.873902,422 C227.197776,421.990018 228.711971,421.879474 230.447857,421.629296 C241.465504,420.039013 240.651938,410.324714 240.651938,410.324714 L238.395287,328.764552 L302.510131,292.926952 C302.510131,292.926952 331.767129,281.370253 328.786843,236.404043" id="Fill-66" fill="#D4ECFF"></path>
                    <path d="M262,311.870426 L253.06331,309 C252.854337,309 237.871757,321.67682 238.000829,326.111467 L244.72281,328 L261.608687,313.667578 L262,311.870426 Z" id="Fill-68" fill="#5793CE"></path>
                    <path d="M315.198537,326.276179 C315.198537,326.276179 351.983087,306.170948 356.384795,297.739971 C358.111153,294.438708 360.790541,290.990551 350.056835,286 L301,319.474573 L303.126146,331 L315.198537,326.276179 Z" id="Fill-70" fill="#5793CE"></path>
                    <path d="M363.796659,251.398413 C360.617491,206.442946 311.277629,258.013732 311.277629,258.013732 L277.371377,288.830918 L246.838808,319.929318 C240.875775,326.003542 238.102369,334.203358 239.256909,342.348869 L251.607561,429.550451 C252.216204,433.857875 256.192257,437.034624 260.875256,437 C262.199212,436.990018 263.713501,436.879472 265.449494,436.627349 C276.467823,435.037035 275.654207,425.322542 275.654207,425.322542 L273.397416,343.762697 L337.516229,307.922446 C337.516229,307.922446 366.701834,292.498338 363.796659,251.398413" id="Fill-72" fill="#D4ECFF"></path>
                    <path d="M332.955758,107.993621 C369.736276,122.400504 368.998904,142.941682 368.998904,142.941682 C368.998904,142.941682 361.793142,218.242561 364.253097,268.534097 C365.281321,289.557116 246.023711,291.161321 263.808711,235.074135 C284.778747,168.9418 276.919592,115.403152 286.734831,107.327944 C296.552118,99.2527358 323.441612,104.268537 332.955758,107.993621" id="Fill-74" fill="#4378AD"></path>
                    <path d="M347.672959,126.623609 C345.770287,133.919726 336.090772,137.763895 326.054633,135.210455 C316.016468,132.657014 309.42297,124.672508 311.327668,117.376391 C313.23034,110.080274 322.907828,106.236105 332.943967,108.789545 C342.982133,111.342986 349.575631,119.327492 347.672959,126.623609" id="Fill-76" fill="#FFC2B0"></path>
                    <path d="M326.684802,109.379551 C319.8417,109.379551 314.120989,112.443664 312.801615,117.363618 C312.015735,120.309273 312.930885,123.527381 315.384963,126.421704 C317.966259,129.466073 321.895656,131.764158 326.450884,132.893457 C335.655729,135.16785 344.513801,131.922102 346.198415,125.639881 C346.986346,122.694226 346.069145,119.476118 343.615067,116.581795 C341.033771,113.535451 337.104374,111.237367 332.549145,110.108068 C330.554694,109.614493 328.576658,109.379551 326.684802,109.379551 M332.2311,137 C330.070444,137 327.829764,136.73347 325.572669,136.174743 C320.29517,134.867757 315.707112,132.164941 312.653877,128.563819 C309.473425,124.81265 308.316151,120.534343 309.391349,116.518618 C311.556108,108.425965 322.342971,104.072634 333.42736,106.826782 C338.704859,108.133768 343.292918,110.838558 346.3441,114.439681 C349.526604,118.192824 350.683879,122.469156 349.608681,126.484881 C347.883029,132.930969 340.689051,137 332.2311,137" id="Fill-78" fill="#FFFFFF"></path>
                    <path d="M322.291697,104.879186 C322.291697,104.879186 322.57757,106.263151 322.002111,117.202241 C321.820192,120.639087 333.448169,123.85104 336.453548,120.739041 C339.458927,117.627041 338.257889,114.390101 338.978141,102.687908 C339.700248,90.9857145 322.291697,104.879186 322.291697,104.879186" id="Fill-80" fill="#FFC2B0"></path>
                    <path d="M339,103 C339,103 336.13197,113.841869 322,118 L322.213755,108.145327 L339,103 Z" id="Fill-82" fill="#EA9C92"></path>
                    <path d="M346.117902,75.8683249 C349.919047,90.035247 341.083522,104.487769 326.382179,108.150736 C311.682826,111.811786 296.68312,103.297449 292.881974,89.1305267 C289.080829,74.9655214 297.918343,60.5110823 312.617697,56.8500322 C327.321029,53.1870654 342.318745,61.7014028 346.117902,75.8683249" id="Fill-84" fill="#FFC2B0"></path>
                    <path d="M326,84.0377527 C326,84.0377527 310.865338,89.9326535 300.384435,89.9995588 C289.905521,90.0682723 292.216491,82.0884573 292.216491,82.0884573 L323.323094,78 L326,84.0377527 Z" id="Fill-86" fill="#EA9C92"></path>
                    <path d="M296.848352,85.3974375 C296.848352,85.3974375 310.520097,79.9651394 322.513037,82.2295622 C325.33442,82.7623675 327.947499,84.1735296 329.762424,86.262281 C330.3564,86.9437314 331.105056,87.5672681 331.954771,87.7468003 C334.083183,88.1985266 337.564538,79.938113 341.699679,79.7508589 C345.832758,79.5616744 348.592268,82.300989 345.201659,87.380014 C341.813112,92.4609695 342.957752,98.1461572 344.516937,98.9608089 C346.078185,99.7754606 362.620812,87.9166803 348.027167,60.8594339 C333.435584,33.8021876 296.369871,48.3751865 290.60336,53.8596069 C290.60336,53.8596069 284.52955,58.8131525 279.59213,54.403995 C279.59213,54.403995 274.054547,93.223499 296.848352,85.3974375" id="Fill-88" fill="#252525"></path>
                    <path d="M350.252112,196.801777 L350.252112,217.532763 C350.252112,219.908496 349.188375,222.173822 347.321066,223.774732 L302,262.602695 L307.148738,270 L366.999149,229.212303 C369.791721,227.307773 371.593989,224.37803 371.954862,221.154524 L376,185 L350.252112,196.801777 Z" id="Fill-90" fill="#FFC2B0"></path>
                    <path d="M367.655948,133 C367.655948,133 381.02192,151.675998 386,200.836227 C386,200.836227 363.171394,207.698306 350.213295,203.803919 C337.259274,199.909533 367.655948,133 367.655948,133" id="Fill-92" fill="#4378AD"></path>
                    <path d="M348,158 C348,158 342.325371,184.708745 342.002371,197.261661 C341.913878,200.712595 344.309832,203.826994 348,205 L348,158 Z" id="Fill-94" fill="#396CAA"></path>
                    <path d="M335.998344,290.401093 L326.104089,289.179914 L262.230812,254.744977 C260.183153,253.641852 256.605968,253.779259 254.243285,255.054627 L208.983392,279.447249 L203,278.707962 L203,284.270037 L203.006218,284.271972 C202.96684,285.003519 203.412433,285.707971 204.378232,286.230504 L276.765459,325.254056 C278.813118,326.359117 282.390304,326.219774 284.752987,324.946342 L334.046021,298.380368 C335.374513,297.664304 336.037722,296.739227 335.998344,295.872209 L335.998344,290.401093 Z" id="Fill-96" fill="#173D7A"></path>
                    <path d="M287,268.415324 L282.570338,266 L233.856202,266 L209.842135,279.075209 L204,278.345838 L204,283.833301 L204.006071,283.835211 C203.967622,284.556944 204.40472,285.251946 205.345694,285.76747 L276.023991,324.267544 C277.082334,324.844167 278.555515,325.073288 280.048932,324.97973 L287,268.415324 Z" id="Fill-98" fill="#396CAA"></path>
                    <path d="M207,279.318718 L204,279 L204,284.420085 L204.007026,284.421971 C203.960187,285.134842 204.466042,285.821311 205.557377,286.330504 L207,287 L207,279.318718 Z" id="Fill-100" fill="#5793CE"></path>
                    <path d="M277,322.627371 C279.002748,323.227035 281.862595,323.0966 284,322.281802 L284,314 L277,314 L277,322.627371 Z" id="Fill-102" fill="#274F89"></path>
                    <path d="M276.766208,319.261297 L204.380503,280.616559 C202.334959,279.524142 202.591948,277.61337 204.956654,276.350382 L254.244507,250.044209 C256.60714,248.783138 260.18425,248.643232 262.231866,249.739482 L334.617571,288.38422 C336.665187,289.476637 336.408199,291.387409 334.045565,292.64848 L284.753567,318.95657 C282.390934,320.217641 278.813824,320.355631 276.766208,319.261297" id="Fill-104" fill="#FFFFFF"></path>
                    <path d="M277.686304,312.385244 L218.137178,280.184818 C216.453701,279.276492 216.662854,277.684522 218.608797,276.63217 L244.742663,262.870943 C246.686556,261.818592 249.629051,261.703371 251.314577,262.615537 L310.863704,294.814043 C312.54718,295.724289 312.335976,297.314338 310.390034,298.36669 L284.258218,312.129838 C282.314326,313.182189 279.36978,313.29549 277.686304,312.385244" id="Fill-106" fill="#D4ECFF"></path>
                    <path d="M258.074026,245.457956 L257.380005,250.346196 C256.785953,254.512356 256.889768,258.753563 257.681837,262.881185 L258.508511,267.187298 C258.975677,269.61722 260.796282,271.501525 263.107124,271.945726 C264.914272,272.29054 266.617604,270.95388 266.823311,269.029009 L267.93067,258.581156 C267.93067,258.581156 270.464521,262.084057 271.689152,262.084057 C272.91186,262.084057 270.318411,251.61795 267.55386,245.695269 C264.785464,239.772588 258.074026,245.457956 258.074026,245.457956" id="Fill-108" fill="#FFC2B0"></path>
                    <path d="M283,173.1652 L275.29838,187.612847 C273.475231,191.029481 272.404363,194.759729 272.145381,198.57958 L268.80123,248 L258.666004,247.772095 L254.065997,192.274196 C253.924174,190.560035 254.010501,188.836135 254.32909,187.143401 L259.580662,159 L283,173.1652 Z" id="Fill-110" fill="#FFC2B0"></path>
                    <path d="M274.33682,322 L268.413815,314.667973 L206.136321,280.470384 C204.140416,279.373361 202.524683,276.437098 202.526706,273.911259 L202.583327,225.554016 L199,221.119894 L202.36493,219.272983 L202.368974,219.276819 C203.012032,218.883655 203.869442,218.893244 204.811784,219.409152 L275.390383,258.165524 C277.386288,259.260629 279.00202,262.19881 279,264.724649 L278.939332,317.389434 C278.93731,318.810578 278.423673,319.798282 277.61884,320.1972 L274.33682,322 Z" id="Fill-112" fill="#173D7A"></path>
                    <path d="M231.839707,293 L227.473894,290.609214 L203.50981,251.276251 L203.533755,225.443313 L200,221.084088 L203.320253,219.268372 L203.324243,219.272143 C203.958763,218.88562 204.804789,218.895047 205.734619,219.402241 L275.374127,257.503986 C276.415697,258.0734 277.349518,259.150009 278,260.403852 L231.839707,293 Z" id="Fill-114" fill="#396CAA"></path>
                    <path d="M199.802236,223 L198,220.593447 L201.81542,218.33232 L201.820006,218.339357 C202.549154,217.858515 203.521353,217.867898 204.589854,218.501201 L206,219.336223 L199.802236,223 Z" id="Fill-116" fill="#5793CE"></path>
                    <path d="M276.821011,260 C278.510803,261.162355 279.821209,263.360562 280,265.388266 L272.562735,269 L269,263.79507 L276.821011,260 Z" id="Fill-118" fill="#274F89"></path>
                    <path d="M271.430648,258.789608 L201.641345,219.419357 C199.663705,218.306906 198.063996,219.483649 198.059997,222.051444 L198,275.548461 C197.996008,278.114308 199.593718,281.09708 201.567358,282.211479 L271.36066,321.579782 C273.334301,322.694182 274.938009,321.51549 274.942009,318.949644 L275,265.452626 C275.001998,262.88678 273.404288,259.90206 271.430648,258.789608" id="Fill-120" fill="#5793CE"></path>
                    <path d="M309,269.594578 L307.832159,271.631113 C306.491227,273.975149 304.378685,275.94667 301.748957,277.313731 L294.520853,281.067 C292.272758,282.235504 289.421974,282.332147 287.140513,281.211086 C287.059181,281.170672 286.973678,281.1285 286.892346,281.086329 C284.596287,279.873896 284.387744,277.094087 286.277144,275.456425 L293.834746,268.911047 C293.834746,268.911047 289.588809,271.652199 288.400113,270.54871 C287.528403,269.738664 292.516754,265.793866 296.345605,265.663837 C300.176542,265.533808 303.882352,263 303.882352,263 L309,269.594578 Z" id="Fill-122" fill="#FFC2B0"></path>
                    <path d="M287.992438,107 C287.992438,107 260.208835,134.594637 249,159.912955 C249,159.912955 258.499687,175.535912 281.756242,181.667841 C305.012798,187.79977 287.992438,107 287.992438,107" id="Fill-124" fill="#4378AD"></path>
                    <path d="M278.332808,182 L283,142 L272,179.476195 C273.960568,180.382226 276.083793,181.2267 278.332808,182" id="Fill-126" fill="#396CAA"></path>
                    <path d="M309.575372,102.680336 L302,101 C302,101 305.617834,105.59349 310.898089,106.766296 C316.178344,107.937387 317,104.326379 317,104.326379 L309.575372,102.680336 Z" id="Fill-128" fill="#FFFFFF"></path>
                    <path d="M170.5,5.25638974 C161.660964,5.25638974 154.47489,12.0935327 154.47489,20.4990247 C154.47489,28.9064673 161.660964,35.7436103 170.5,35.7436103 C179.339036,35.7436103 186.52511,28.9064673 186.52511,20.4990247 C186.52511,12.0935327 179.339036,5.25638974 170.5,5.25638974 M170.5,40 C159.195878,40 150,31.2511879 150,20.4990247 C150,9.74881208 159.195878,1 170.5,1 C181.804122,1 191,9.74881208 191,20.4990247 C191,31.2511879 181.804122,40 170.5,40" id="Fill-130" fill="#D4ECFF"></path>
                    <path d="M585.501023,157.309515 C579.965719,157.309515 575.463427,161.656556 575.463427,167.000988 C575.463427,172.343444 579.965719,176.690485 585.501023,176.690485 C591.034281,176.690485 595.536573,172.343444 595.536573,167.000988 C595.536573,161.656556 591.034281,157.309515 585.501023,157.309515 M585.501023,181 C577.506948,181 571,174.719405 571,167.000988 C571,159.28257 577.506948,153 585.501023,153 C593.495098,153 600,159.28257 600,167.000988 C600,174.719405 593.495098,181 585.501023,181" id="Fill-132" fill="#5793CE"></path>
                    <path d="M105.001233,409.534836 L110.932589,421.198808 L122.998767,415.465164 L117.067411,403.801192 L105.001233,409.534836 Z M108.889703,427 L99,407.560047 L119.110297,398 L129,417.439953 L108.889703,427 Z" id="Fill-134" fill="#5793CE"></path>
                    <path d="M395.001233,116.534046 L400.932589,128.199205 L412.998767,122.465954 L407.067411,110.800795 L395.001233,116.534046 Z M398.889703,134 L389,114.559392 L409.110297,105 L419,124.440608 L398.889703,134 Z" id="Fill-136" fill="#5793CE"></path>
                    <polygon id="Fill-138" fill="#5793CE" points="84 320.044703 73.942623 324 69 315.955297 79.0551416 312"></polygon>
                    <path d="M442.483843,31.0760848 L386.345758,0.493909237 C385.232991,-0.110285837 384.2294,-0.132076479 383.442064,0.276002817 C383.442064,0.272040882 383.446263,0.24232637 383.446263,0.24232637 L378,3.20981562 C378,3.20981562 380.412397,4.03984099 381.827501,4.52913995 L381.827501,43.1025383 C381.827501,46.2403907 383.849379,49.8873518 386.345758,51.2462955 L440.00216,80.4754703 L440.00216,85 L445.503012,82.0107201 L445.475718,82.0027962 C446.403724,81.4659541 447,80.2932213 447,78.605437 L447,39.2198421 C447,36.0800086 444.978122,32.4350285 442.483843,31.0760848" id="Fill-140" fill="#04A884"></path>
                    <path d="M435.565091,84.4844853 L380.43697,53.6622676 C377.985503,52.2926575 376,48.6190676 376,45.4565859 L376,5.76185012 C376,2.59936841 377.985503,1.14590459 380.43697,2.51551473 L435.565091,33.3357358 C438.014497,34.705346 440,38.3809324 440,41.5434141 L440,81.2381499 C440,84.4006316 438.014497,85.8540954 435.565091,84.4844853" id="Fill-142" fill="#00D7A7"></path>
                    <path d="M402,38.5119137 C402,40.7332303 400.208426,41.635278 397.997783,40.5246197 C395.789357,39.4120298 394,36.7097499 394,34.4884333 C394,32.2651851 395.789357,31.365069 397.997783,32.4757273 C400.208426,33.5863856 402,36.2905971 402,38.5119137" id="Fill-144" fill="#FFFFFF"></path>
                    <path d="M412,46.5118178 C412,48.73322 410.208426,49.6353025 408,48.5246014 C405.791574,47.4119686 404,44.7095845 404,42.4881822 C404,40.26678 405.791574,39.3646975 408,40.4753986 C410.208426,41.5880314 412,44.2904155 412,46.5118178" id="Fill-146" fill="#FFFFFF"></path>
                    <path d="M422,52.5115667 C422,54.7348149 420.208426,55.634931 417.997783,54.5242727 C415.789357,53.4116828 414,50.7094029 414,48.4880863 C414,46.2667697 415.789357,45.364722 417.997783,46.4753803 C420.208426,47.5879702 422,50.2902501 422,52.5115667" id="Fill-148" fill="#FFFFFF"></path>
                    <path d="M61.7459677,358.345098 L8.8608871,328.483331 C7.81451613,327.893785 6.86693548,327.870124 6.12701613,328.268413 C6.12701613,328.264469 6.13104839,328.234893 6.13104839,328.234893 L1,331.133328 C1,331.133328 3.27217742,331.943707 4.60483871,332.422836 L4.60483871,370.088689 C4.60483871,373.152749 6.51008065,376.711711 8.8608871,378.038682 L59.4092742,406.581365 L59.4092742,411 L64.5907258,408.081848 L64.5625,408.071989 C65.4395161,407.549482 66,406.401939 66,404.753577 L66,366.295091 C66,363.233003 64.0967742,359.672069 61.7459677,358.345098" id="Fill-150" fill="#1D3461"></path>
                    <path d="M57.7040588,409.514658 L4.29797714,380.549603 C1.92401156,379.264392 0,375.810388 0,372.838338 L0,335.534714 C0,332.564577 1.92401156,331.197128 4.29797714,332.484251 L57.7040588,361.447393 C60.0780244,362.734517 62,366.18852 62,369.16057 L62,406.464195 C62,409.436244 60.0780244,410.803693 57.7040588,409.514658" id="Fill-152" fill="#48597B"></path>
                    <path d="M22,370.512738 C22,372.734039 20.2101695,373.63595 18,372.52333 C15.7898305,371.41268 14,368.710886 14,366.487616 C14,364.264346 15.7898305,363.364404 18,364.477024 C20.2101695,365.585705 22,368.289469 22,370.512738" id="Fill-154" fill="#FFFFFF"></path>
                    <path d="M33,374.510998 C33,376.734107 31.2101695,377.635952 29,376.523413 C26.7898305,375.412844 25,372.709277 25,370.488138 C25,368.265029 26.7898305,367.365153 29,368.475723 C31.2101695,369.586292 33,372.289859 33,374.510998" id="Fill-156" fill="#FFFFFF"></path>
                    <path d="M45,380.511237 C45,382.734132 43.2101695,383.635891 41,382.523459 C38.7920904,381.412996 37,378.709688 37,376.488763 C37,374.265868 38.7920904,373.364109 41,374.476541 C43.2101695,375.587004 45,378.290312 45,380.511237" id="Fill-158" fill="#FFFFFF"></path>
                </g>
            </g>
        </g>
    </g>
</svg>