<?xml version="1.0" encoding="UTF-8"?>
<svg width="43px" height="56px" viewBox="0 0 43 56" version="1.1" xmlns="http://www.w3.org/2000/svg" xmlns:xlink="http://www.w3.org/1999/xlink">
    <!-- Generator: Sketch 57.1 (83088) - https://sketch.com -->
    <title>Shape</title>
    <desc>Created with Sketch.</desc>
    <g id="page2---dashboard" stroke="none" stroke-width="1" fill="none" fill-rule="evenodd">
        <g id="dashboard_student" transform="translate(-1074.000000, -586.000000)" fill="#5A6169" fill-rule="nonzero">
            <g id="noun_Lock_747565" transform="translate(1074.000000, 586.000000)">
                <path d="M37.7658518,22.7857846 L36.2194063,22.7857846 L36.2131454,15.1262296 C36.2068845,6.78223025 29.3762285,-0.00621367961 20.9803442,4.26812709e-06 C12.58446,0.00623076388 5.75380398,6.79467469 5.7600649,15.1386741 L5.77258672,22.798229 L5.22162638,22.798229 C2.33534552,22.8044512 -0.00623591119,25.1315622 1.24756351e-05,28.0000043 L1.24756351e-05,50.8044491 C1.24756351e-05,53.6728933 2.34786735,56.0000043 5.23414821,56.0000043 L37.7783736,55.9813376 C40.6646545,55.9813376 43.0062359,53.6542267 42.9999875,50.7857824 L42.9999875,27.9751175 C42.9999875,25.1066733 40.6521326,22.7857846 37.7658518,22.7857846 Z M11.3823647,22.798229 L11.3698429,15.1386741 C11.3698429,9.86845223 15.677351,5.58134145 20.9803442,5.57511923 C26.2833375,5.57511923 30.5971065,9.86223001 30.5971065,15.1262296 L30.6096283,22.7857846 L11.3823647,22.798229 Z" id="Shape"></path>
            </g>
        </g>
    </g>
</svg>