<?xml version="1.0" encoding="UTF-8"?>
<svg width="168px" height="119px" viewBox="0 0 168 119" version="1.1" xmlns="http://www.w3.org/2000/svg" xmlns:xlink="http://www.w3.org/1999/xlink">
    <!-- Generator: Sketch 57.1 (83088) - https://sketch.com -->
    <title>Group</title>
    <desc>Created with Sketch.</desc>
    <g id="page2---dashboard" stroke="none" stroke-width="1" fill="none" fill-rule="evenodd" opacity="0.558617001">
        <g id="dashboard_student" transform="translate(-1167.000000, -205.000000)" fill="#F5A623" fill-rule="nonzero">
            <g id="passer_premium" transform="translate(855.000000, 205.000000)">
                <g id="upgrade-account">
                    <g id="Group" transform="translate(312.800000, -2.400000)">
                        <path d="M141.124622,76.7402799 L127.801358,82.372943 C124.023337,83.9699228 123.749189,89.1631356 127.336613,91.1602577 L139.99039,98.2030942 C141.415484,98.9962957 142.355762,100.430828 142.506382,102.039238 L143.840182,116.32431 C144.218635,120.375017 149.128214,122.251135 152.14935,119.499048 L162.801165,109.793877 C164.000864,108.701159 165.669004,108.262735 167.261866,108.62277 L181.4097,111.819423 C185.421381,112.725857 188.730611,108.692061 187.009645,104.993898 L180.939753,91.9518005 C180.256555,90.4830865 180.345937,88.7777581 181.180829,87.3915691 L188.589692,75.082667 C190.690938,71.5921034 187.826007,67.2229647 183.741103,67.6898039 L169.337827,69.3352984 C167.715896,69.5208476 166.103487,68.9046507 165.026414,67.6880496 L155.457933,56.8836564 C152.744574,53.8200993 147.664651,55.152991 146.862156,59.1399921 L144.030452,73.1987391 C143.711508,74.7812309 142.625202,76.106125 141.124622,76.7402799 Z" id="Path-Copy-2" transform="translate(157.048520, 88.000000) scale(1, -1) translate(-157.048520, -88.000000) "></path>
                        <g id="star" transform="translate(88.000000, 9.600000)">
                            <path d="M18.8715777,10.2618771 L6.77789545,7.58453698 C3.34866903,6.82516479 0.515845237,10.2220807 1.9839411,13.3319571 L7.16307727,24.300258 C7.74634976,25.5355454 7.6674725,26.9700884 6.95322284,28.1371899 L0.606906233,38.5008618 C-1.19250506,41.4397236 1.25283585,45.113055 4.74574283,44.7174297 L17.0619091,43.3212136 C18.4488782,43.1642058 19.8272791,43.680826 20.747191,44.7035445 L28.9184633,53.7865479 C31.2354598,56.3620802 35.5801827,55.2357361 36.2704129,51.8808971 L38.7041496,40.0492582 C38.9784653,38.7170304 39.9082535,37.6012501 41.1919282,37.0665469 L52.5872835,32.3162642 C55.8189472,30.9692928 56.0583973,26.5995661 52.9917957,24.9219458 L42.1793207,19.0063092 C40.9616161,18.3403303 40.1585355,17.1339037 40.0317641,15.7807202 L38.9037156,3.76180196 C38.5836931,0.353751403 34.3872314,-1.22100462 31.8023716,1.09778322 L22.686403,9.27319645 C21.6601459,10.1933463 20.2335475,10.5635877 18.8715777,10.2618771 Z" id="Path-Copy-2" transform="translate(27.578778, 27.600000) scale(1, -1) translate(-27.578778, -27.600000) "></path>
                        </g>
                        <path d="M19.7023599,15.1686047 L5.2188664,14.4875189 C1.11195548,14.2941629 -1.44735315,18.8100054 0.88754233,22.1283008 L9.12400883,33.8314241 C10.0516053,35.1494737 10.2578236,36.8320547 9.67686075,38.3315522 L4.51351853,51.6476284 C3.04960305,55.4236663 6.62673487,59.2002891 10.567813,58.0389092 L24.4640007,53.9424061 C26.0289484,53.4813453 27.723523,53.8046659 28.9948298,54.8081102 L40.2871222,63.7196707 C43.4890985,66.2465915 48.2599498,64.065092 48.3602095,60.0285804 L48.7131953,45.7929668 C48.7532636,44.1899982 49.5931036,42.7068273 50.9608671,41.8276901 L63.1019352,34.0192286 C66.5451173,31.8050033 65.9160211,26.679898 62.0366168,25.3468176 L48.3581829,20.6458999 C46.8177632,20.1167622 45.6429761,18.876404 45.2167471,17.3296656 L41.428615,3.59201716 C40.3542829,-0.303360275 35.1948478,-1.28993983 32.6978756,1.92345584 L23.8914016,13.253506 C22.899941,14.5287626 21.3335062,15.2455318 19.7023599,15.1686047 Z" id="Path-Copy-2" transform="translate(32.675923, 32.400000) scale(1, -1) translate(-32.675923, -32.400000) "></path>
                    </g>
                </g>
            </g>
        </g>
    </g>
</svg>