<?xml version="1.0" encoding="UTF-8"?>
<svg width="64px" height="55px" viewBox="0 0 64 55" version="1.1" xmlns="http://www.w3.org/2000/svg" xmlns:xlink="http://www.w3.org/1999/xlink">
    <!-- Generator: Sketch 57.1 (83088) - https://sketch.com -->
    <title>icon / upload-cloud</title>
    <desc>Created with Sketch.</desc>
    <defs>
        <path d="M1087.74096,954.865835 C1089.02141,953.700151 1091.04609,953.709452 1092.2973,954.906138 L1092.2973,954.906138 L1102.04697,964.206806 C1103.31768,965.418993 1103.31768,967.378334 1102.04697,968.590521 C1101.41324,969.195064 1100.58127,969.498886 1099.7493,969.498886 C1098.91733,969.498886 1098.08535,969.195064 1097.45163,968.590521 L1097.45163,968.590521 L1093.24952,964.581933 L1093.24952,981.899777 C1093.24952,983.6142 1091.79357,985 1089.99963,985 C1088.20569,985 1086.74974,983.6142 1086.74974,981.899777 L1086.74974,981.899777 L1086.74974,964.40212 L1082.50863,968.308401 C1081.21843,969.501986 1079.16125,969.461684 1077.91329,968.230895 C1076.66533,966.997006 1076.70108,965.037666 1077.99129,963.84718 L1077.99129,963.84718 Z M1090,930 C1098.2592,930 1105.536,935.122034 1108.16,942.473586 C1115.9648,943.494292 1122,949.957737 1122,957.753343 C1122,961.518546 1120.5792,965.141899 1118,967.957322 C1117.3664,968.644988 1116.4864,969 1115.6,969 C1114.848,969 1114.0928,968.74675 1113.4816,968.228688 C1112.16,967.096968 1112.032,965.15115 1113.2032,963.871413 C1114.7488,962.18771 1115.6,960.010615 1115.6,957.753343 C1115.6,952.652895 1111.2928,948.502228 1106,948.502228 L1106,948.502228 L1105.68,948.502228 C1104.1568,948.502228 1102.8448,947.466104 1102.544,946.026014 C1101.3472,940.314992 1096.0736,936.167409 1090,936.167409 C1083.9296,936.167409 1078.6528,940.314992 1077.4592,946.026014 C1077.1584,947.466104 1075.8432,948.502228 1074.32,948.502228 L1074.32,948.502228 L1074,948.502228 C1068.7072,948.502228 1064.4,952.652895 1064.4,957.753343 C1064.4,960.010615 1065.2512,962.18771 1066.8,963.871413 C1067.968,965.15115 1067.8432,967.096968 1066.5184,968.228688 C1065.1936,969.357324 1063.1712,969.230892 1062.0032,967.957322 C1059.4208,965.141899 1058,961.518546 1058,957.753343 C1058,949.957737 1064.0352,943.494292 1071.84,942.473586 C1074.4672,935.122034 1081.744,930 1090,930 Z" id="path-1"></path>
    </defs>
    <g id="page2---dashboard" stroke="none" stroke-width="1" fill="none" fill-rule="evenodd">
        <g id="dashboard_student" transform="translate(-894.000000, -587.000000)">
            <g id="uploading" transform="translate(-164.000000, -343.000000)">
                <mask id="mask-2" fill="white">
                    <use xlink:href="#path-1"></use>
                </mask>
                <use id="icon-/-upload-cloud" fill="#F5A623" xlink:href="#path-1"></use>
            </g>
        </g>
    </g>
</svg>