<?xml version="1.0" encoding="UTF-8"?>
<svg width="100px" height="100x" viewBox="0 0 538 149" version="1.1" xmlns="http://www.w3.org/2000/svg" xmlns:xlink="http://www.w3.org/1999/xlink">
    <!-- Generator: Sketch 57.1 (83088) - https://sketch.com -->
    <title>Group 2</title>
    <desc>Created with Sketch.</desc>
    <defs>
        <linearGradient x1="0%" y1="50%" x2="100%" y2="50%" id="linearGradient-1">
            <stop stop-color="#00D7A7" offset="0%"></stop>
            <stop stop-color="#1D3461" offset="100%"></stop>
        </linearGradient>
    </defs>
    <g id="UI-Kit" stroke="none" stroke-width="1" fill="none" fill-rule="evenodd">
        <g id="Yam-UI-Kit" transform="translate(-923.000000, -68.000000)">
            <g id="Group-2" transform="translate(923.000000, 68.000000)">
                <g id="Group-3" transform="translate(19.000000, 34.000000)">
                    <g id="Icon" transform="translate(0.000000, 0.022309)">
                        <g id="noun_building_1554598" transform="translate(0.385714, 0.699616)"></g>
                    </g>
                </g>
                <path d="M194.844439,4.01379763 L194.844439,61.9691196 C194.844439,65.6892433 195.38337,68.9361447 196.461248,71.7099212 C197.539127,74.4836976 198.992607,76.800582 200.821734,78.6606439 C202.650861,80.5207058 204.790254,81.9075732 207.239978,82.8212878 C209.689702,83.7350024 212.319032,84.1918528 215.128048,84.1918528 C217.871739,84.1918528 220.468407,83.5555254 222.91813,82.2828515 C225.367854,81.0101776 227.507247,79.3296206 229.336374,77.2411301 C231.165501,75.1526396 232.602651,72.7868069 233.647866,70.1435611 C234.693081,67.5003153 235.215681,64.7755287 235.215681,61.9691196 L235.215681,4.01379763 L262.162506,4.01379763 L262.162506,95.6458607 C262.09718,103.020843 260.66003,109.938864 257.851014,116.400131 C255.041997,122.861399 251.204155,128.506765 246.337371,133.336399 C241.470587,138.166034 235.803644,141.983998 229.336374,144.790407 C222.869104,147.596816 215.944656,149 208.562822,149 L194.844439,148.804205 L194.844439,121.882392 L209.738684,122.078187 C212.351722,122.078187 214.866734,121.653968 217.283794,120.805519 C219.700855,119.95707 221.938236,118.782311 223.996003,117.281209 C226.053771,115.780106 227.866539,114.001653 229.434363,111.945795 C231.002186,109.889937 232.276023,107.654633 233.255912,105.239816 C230.316244,106.479857 227.327626,107.71988 224.289969,108.959921 C221.252312,110.199962 218.198369,110.819974 215.128048,110.819974 C208.660778,110.819974 202.585555,109.677848 196.902196,107.393561 C191.218838,105.109275 186.237808,101.862373 181.958957,97.6527595 C177.680107,93.4431458 174.31587,88.3198944 171.866147,82.2828515 C169.416423,76.2458086 168.19158,69.4746324 168.19158,61.9691196 L168.19158,4.01379763 L194.844439,4.01379763 Z M92.5479503,18.1116294 C101.385666,26.8592765 106.226532,38.6971693 105.978289,50.9542844 L105.978289,61.1043712 L105.978289,61.1043712 C105.902605,62.2379026 106.370297,63.3417834 107.245301,64.0948647 C115.498987,71.7118274 123.698371,79.3991548 131.915856,86.9633442 C133.651888,88.3934862 134.662561,90.4863841 134.685184,92.6980552 C134.680935,94.5454246 133.910277,96.3130594 132.547579,97.6010129 C131.184881,98.8889658 129.345317,99.5883816 127.44511,99.5410085 L106.937599,99.5410085 L106.937599,99.5410085 C105.634385,99.5410085 105.127579,99.8928311 104.874177,101.176984 C99.9147261,119.929137 87.3350963,131.363377 68.6738042,136.922177 C65.148473,137.811549 61.5779081,138.522019 57.976594,139.050705 L48.0576918,139.050705 C44.9005067,138.711583 41.7769615,138.12327 38.7179956,137.291591 C21.5590188,132.700304 9.12419072,122.814084 2.66242415,106.348779 C0.939129935,101.830856 0.0392328553,97.0574366 0.00125464648,92.2427077 L0.00169674131,51.7810679 C-0.0888041911,33.2751905 8.38208309,19.4309647 24.2559466,9.93175007 C46.2482459,-2.92257655 74.4250918,0.45238957 92.5479503,18.1116294 Z M330.558446,0 C333.955396,0 337.319632,0.424218272 340.651256,1.27266754 C343.98288,2.12111681 347.216467,3.29587511 350.352113,4.79697766 C353.487759,6.29808022 356.476377,8.06021765 359.318057,10.0834428 C362.159736,12.106668 364.821729,14.2930237 367.304115,16.6425756 L377.690891,4.20959264 L384.158129,4.20959264 L384.158129,108.862024 L377.690891,108.862024 L367.304115,94.4710907 C364.756403,96.7553772 362.061747,98.8927846 359.220068,100.883377 C356.378389,102.87397 353.389771,104.603475 350.254125,106.071945 C347.118479,107.540415 343.901223,108.698857 340.602262,109.547306 C337.303301,110.395755 333.955396,110.819974 330.558446,110.819974 C323.176612,110.819974 316.235833,109.579951 309.7359,107.099869 C303.235966,104.619786 297.552693,101.013931 292.685909,96.2821945 C287.819125,91.5504582 283.981282,85.7582471 281.172266,78.9053876 C278.363249,72.0525282 276.958762,64.2534384 276.958762,55.5078844 C276.958762,47.3497183 278.363249,39.8606342 281.172266,33.0404074 C283.981282,26.2201805 287.819125,20.3627052 292.685909,15.4678055 C297.552693,10.5729059 303.235966,6.77125752 309.7359,4.06274639 C316.235833,1.35423525 323.176612,0 330.558446,0 Z M497.922723,2.15374507 C503.47543,2.15374507 508.685097,3.19797466 513.551881,5.28646518 C518.418665,7.37495569 522.664789,10.230271 526.29038,13.8524967 C529.915971,17.4747224 532.773939,21.7332213 534.86437,26.6281209 C536.9548,31.5230205 538,36.7441685 538,42.2917214 L538,108.862024 L511.347141,108.862024 L511.347141,42.2917214 C511.347141,40.4642922 511.004185,38.734787 510.318262,37.1031537 C509.63234,35.4715205 508.668796,34.0357048 507.427603,32.7956636 C506.186409,31.5556224 504.74926,30.5929732 503.116111,29.9076873 C501.482962,29.2224013 499.75185,28.8797635 497.922723,28.8797635 C496.093596,28.8797635 494.378815,29.2224013 492.778329,29.9076873 C491.177843,30.5929732 489.773356,31.5556224 488.564826,32.7956636 C487.356295,34.0357048 486.409083,35.4715205 485.723161,37.1031537 C485.037238,38.734787 484.694282,40.4642922 484.694282,42.2917214 L484.694282,108.862024 L457.943434,108.862024 L457.943434,42.2917214 C457.943434,40.4642922 457.600478,38.734787 456.914555,37.1031537 C456.228633,35.4715205 455.265089,34.0357048 454.023896,32.7956636 C452.782703,31.5556224 451.345553,30.5929732 449.712404,29.9076873 C448.079255,29.2224013 446.348143,28.8797635 444.519016,28.8797635 C442.689889,28.8797635 440.975108,29.2224013 439.374622,29.9076873 C437.774136,30.5929732 436.369649,31.5556224 435.161119,32.7956636 C433.952589,34.0357048 433.005376,35.4715205 432.319454,37.1031537 C431.633531,38.734787 431.290575,40.4642922 431.290575,42.2917214 L431.290575,108.862024 L404.539727,108.862024 L404.539727,4.01379763 L411.006965,4.01379763 L418.258111,12.0413929 C421.981691,8.90865714 426.080833,6.47756011 430.555662,4.74802891 C435.03049,3.0184977 439.684895,2.15374507 444.519016,2.15374507 C449.418463,2.15374507 454.203518,3.06744597 458.874324,4.89487516 C463.545131,6.72230436 467.644273,9.88762532 471.171875,14.390933 C472.805024,12.1719118 474.666786,10.2792457 476.757217,8.71287779 C478.847648,7.14650991 481.052366,5.87385509 483.371438,4.89487516 C485.690509,3.91589524 488.091202,3.21430348 490.573589,2.79007884 C493.055975,2.36585421 495.505662,2.15374507 497.922723,2.15374507 Z M330.558446,27.0197109 C326.900192,27.0197109 323.454299,27.6397222 320.220664,28.8797635 C316.987029,30.1198047 314.178055,31.9472065 311.793657,34.3620237 C309.409259,36.7768408 307.531166,39.7626848 306.159321,43.3196452 C304.787476,46.8766056 304.101563,50.9393114 304.101563,55.5078844 C304.101563,60.0764574 304.787476,64.1391631 306.159321,67.6961235 C307.531166,71.2530839 309.409259,74.2389279 311.793657,76.6537451 C314.178055,79.0685622 316.987029,80.895964 320.220664,82.1360053 C323.454299,83.3760465 326.900192,83.9960578 330.558446,83.9960578 C334.2167,83.9960578 337.662592,83.1965695 340.896227,81.597569 C344.129863,79.9985684 346.955168,77.8774771 349.372229,75.2342313 C351.789289,72.5909855 353.700045,69.5561932 355.104553,66.1297635 C356.509061,62.7033337 357.211305,59.1627428 357.211305,55.5078844 C357.211305,51.853026 356.509061,48.312435 355.104553,44.8860053 C353.700045,41.4595755 351.789289,38.4247833 349.372229,35.7815375 C346.955168,33.1382916 344.129863,31.0172003 340.896227,29.4181997 C337.662592,27.8191992 334.2167,27.0197109 330.558446,27.0197109 Z" id="Combined-Shape" fill="url(#linearGradient-1)" fill-rule="nonzero"></path>
                <path d="M79.787037,36 L23.212963,36 C20.8055556,36 19,38.1030941 19,40.9072196 L19,129.039311 C22.3257424,131.415513 25.6740876,133.320821 29.0450355,134.755235 C32.4159834,136.189649 36.8917123,137.512047 42.4722222,138.72243 L42.4722222,122.787683 C42.4722222,122.086652 42.9537037,121.385621 43.6759259,121.385621 L59.4444444,121.385621 C60.0462963,121.385621 60.6481482,121.946446 60.6481482,122.787683 L60.6481482,139 C65.0979387,138.293258 69.1509051,137.29302 72.8070472,135.999286 C76.4631893,134.705551 80.1941736,132.901188 84,130.586194 L84,40.9072196 C84,38.1030941 82.1944444,36 79.787037,36 Z M43.7850468,110.759043 L33.2149532,110.759043 C32.6074766,110.759043 32,110.215624 32,109.400494 L32,97.5811124 C32,96.9018376 32.4859813,96.2225628 33.2149532,96.2225628 L43.7850468,96.2225628 C44.3925234,96.2225628 45,96.7659826 45,97.5811124 L45,109.400494 C45,110.079769 44.5140187,110.759043 43.7850468,110.759043 Z M43.7850468,85.8393624 L33.2149532,85.8393624 C32.6074766,85.8393624 32,85.2959425 32,84.4808127 L32,72.6614312 C32,71.9821564 32.4859813,71.3028817 33.2149532,71.3028817 L43.7850468,71.3028817 C44.3925234,71.3028817 45,71.8463015 45,72.6614312 L45,84.4808127 C45,85.1600875 44.5140187,85.8393624 43.7850468,85.8393624 Z M43.7850468,60.9196812 L33.2149532,60.9196812 C32.6074766,60.9196812 32,60.3762613 32,59.5611315 L32,47.7417501 C32,47.0624753 32.4859813,46.3832005 33.2149532,46.3832005 L43.7850468,46.3832005 C44.3925234,46.3832005 45,46.9266203 45,47.7417501 L45,59.5611315 C45,60.2404064 44.5140187,60.9196812 43.7850468,60.9196812 Z M71,109.400494 C71,110.079769 70.5140187,110.759043 69.7850468,110.759043 L59.2149532,110.759043 C58.6074766,110.759043 58,110.215624 58,109.400494 L58,97.5811124 C58,96.9018376 58.4859813,96.2225628 59.2149532,96.2225628 L69.7850468,96.2225628 C70.3925234,96.2225628 71,96.7659826 71,97.5811124 L71,109.400494 Z M71,84.4808127 C71,85.1600875 70.5140187,85.8393624 69.7850468,85.8393624 L59.2149532,85.8393624 C58.6074766,85.8393624 58,85.2959425 58,84.4808127 L58,72.6614312 C58,71.9821564 58.4859813,71.3028817 59.2149532,71.3028817 L69.7850468,71.3028817 C70.3925234,71.3028817 71,71.8463015 71,72.6614312 L71,84.4808127 Z M71,59.5611315 C71,60.2404064 70.5140187,60.9196812 69.7850468,60.9196812 L59.2149532,60.9196812 C58.6074766,60.9196812 58,60.3762613 58,59.5611315 L58,47.7417501 C58,47.0624753 58.4859813,46.3832005 59.2149532,46.3832005 L69.7850468,46.3832005 C70.3925234,46.3832005 71,46.9266203 71,47.7417501 L71,59.5611315 Z" id="Shape" fill="#FFFFFF" fill-rule="nonzero"></path>
            </g>
        </g>
    </g>
</svg>
